<?xml version="1.0" encoding="utf-8"?>
<!-- Generator: Adobe Illustrator 16.0.0, SVG Export Plug-In . SVG Version: 6.00 Build 0)  -->
<!DOCTYPE svg PUBLIC "-//W3C//DTD SVG 1.1//EN" "http://www.w3.org/Graphics/SVG/1.1/DTD/svg11.dtd">
<svg version="1.1" id="Layer_1" xmlns="http://www.w3.org/2000/svg" xmlns:xlink="http://www.w3.org/1999/xlink" x="0px" y="0px"
	 width="361.133px" height="431.999px" viewBox="71.434 36 361.133 431.999" enable-background="new 71.434 36 361.133 431.999"
	 xml:space="preserve">
<g>
	<path fill="#7E8083" d="M251.22,146.288c16.108,0,29.161-13.054,29.161-29.162c0-16.097-13.053-29.154-29.161-29.154
		c-16.102,0-29.157,13.058-29.157,29.154C222.062,133.234,235.118,146.288,251.22,146.288"/>
	<path fill="#7E8083" d="M205,193.871c0-2.921,1.334-3.322,2.957-0.894l39.484,59.134c1.617,2.434,3.14,4.426,3.367,4.426
		s1.745-1.988,3.374-4.416l39.881-59.557c1.637-2.432,2.961-2.027,2.961,0.897v73.021c0,2.923,2.395,5.313,5.322,5.313h14.857
		c2.921,0,5.313-2.392,5.313-5.313V152.418c0-2.921-2.394-5.312-5.313-5.312h-16.514c-2.928,0-6.614,2.011-8.196,4.468
		L254.1,211.233c-1.58,2.463-4.174,2.463-5.754,0l-38.395-59.659c-1.579-2.458-5.267-4.468-8.197-4.468H185.24
		c-2.92,0-5.314,2.391-5.314,5.312v114.064c0,2.922,2.395,5.313,5.314,5.313h14.439c2.929,0,5.318-2.392,5.318-5.313v-72.611H205z"
		/>
	<path fill="#7E8083" d="M184,280.368c-2.926,0-5.322,2.388-5.322,5.313v14.854c0,2.935,2.396,5.325,5.322,5.325h134.448
		c2.924,0,5.313-2.391,5.313-5.325v-14.854c0-2.927-2.391-5.313-5.313-5.313H184z"/>
	<path fill="#B1A7B6" d="M326.188,36H177.824c-2.273,0-4.262,1.311-5.236,3.218c0.878,0.176,1.723,0.562,2.464,1.152l12.821,10.222
		c1.439,1.147,2.193,2.849,2.203,4.567c0.008,1.294-0.41,2.599-1.275,3.685l-4.215,5.286h134.832l-4.216-5.283
		c-0.866-1.086-1.28-2.387-1.273-3.682c0.012-1.717,0.768-3.417,2.202-4.566l12.826-10.222c0.742-0.591,1.586-0.977,2.464-1.156
		C330.448,37.311,328.465,36,326.188,36"/>
	<path fill="#A4A8B3" d="M171.404,39.098c-1.727,0-3.445,0.755-4.602,2.204l-92.5,115.995c-0.862,1.083-1.278,2.387-1.272,3.679
		c0.003,0.83,0.181,1.658,0.531,2.419c0.682-0.571,1.513-0.995,2.437-1.206l15.986-3.65c0.433-0.102,0.867-0.149,1.297-0.149
		c2.68,0,5.109,1.854,5.729,4.57l1.507,6.594L184.586,64.13h-6.762c-3.228,0-5.873-2.64-5.873-5.867V41.867
		c0-0.95,0.229-1.854,0.637-2.649C172.197,39.136,171.803,39.098,171.404,39.098"/>
	<path fill="#7E8083" d="M172.588,39.214c-0.407,0.8-0.637,1.703-0.637,2.653v16.396c0,3.23,2.646,5.867,5.873,5.867h6.762
		l4.215-5.286c0.865-1.086,1.283-2.391,1.275-3.685c-0.012-1.718-0.764-3.419-2.203-4.567L175.052,40.37
		C174.311,39.78,173.466,39.397,172.588,39.214"/>
	<path fill="#A6BDC2" d="M73.559,163.395c-1.316,1.1-2.119,2.744-2.125,4.5c0,0.438,0.047,0.877,0.144,1.32l33.021,144.645
		c0.504,2.218,2.225,3.856,4.299,4.38c0-0.035,0-0.074,0-0.115c-0.002-0.854,0.188-1.72,0.578-2.537l7.115-14.774
		c1.008-2.092,3.123-3.324,5.308-3.324c0.851,0,1.712,0.189,2.523,0.582l6.099,2.934l-30.003-131.449l-4.216,5.286
		c-1.156,1.449-2.871,2.201-4.598,2.201c-1.285,0-2.578-0.417-3.65-1.272l-12.818-10.226
		C74.493,164.952,73.93,164.209,73.559,163.395"/>
	<path fill="#7E8083" d="M93.281,158.393c-0.43,0-0.864,0.047-1.301,0.148l-15.984,3.65c-0.926,0.208-1.75,0.628-2.438,1.203
		c0.371,0.814,0.935,1.557,1.676,2.15l12.818,10.223c1.072,0.855,2.367,1.275,3.65,1.275c1.727,0,3.441-0.757,4.598-2.2l4.213-5.293
		l-1.504-6.59C98.391,160.243,95.957,158.393,93.281,158.393"/>
	<path fill="#A7BAAB" d="M130.52,301.002l1.507,6.596c0.097,0.444,0.144,0.885,0.144,1.323c-0.008,2.667-1.858,5.087-4.562,5.708
		l-15.985,3.645c-0.436,0.1-0.871,0.146-1.298,0.146c-0.489,0-0.964-0.06-1.424-0.174c0.044,2.142,1.263,4.188,3.312,5.172
		l133.673,64.378c0.812,0.393,1.677,0.573,2.526,0.573c1.291,0,2.559-0.427,3.584-1.209c-0.711-0.543-1.307-1.25-1.717-2.104
		l-7.115-14.775c-0.395-0.817-0.578-1.687-0.578-2.54c0-2.185,1.226-4.289,3.316-5.298l6.102-2.934L130.52,301.002z"/>
	<path fill="#7E8083" d="M121.897,297.489c-2.187,0-4.3,1.229-5.304,3.321l-7.119,14.77c-0.395,0.818-0.58,1.686-0.58,2.543
		c0,0.038,0,0.078,0.007,0.121c0.46,0.117,0.935,0.174,1.424,0.174c0.427,0,0.862-0.046,1.298-0.146l15.985-3.644
		c2.703-0.621,4.554-3.041,4.562-5.711c0-0.437-0.043-0.876-0.148-1.319l-1.502-6.597l-6.094-2.937
		C123.609,297.677,122.752,297.489,121.897,297.489"/>
	<path fill="#C2BFAB" d="M373.483,301.005l-121.487,58.5l6.1,2.937c2.09,1.009,3.314,3.11,3.314,5.291
		c0.007,0.857-0.184,1.728-0.574,2.541l-7.115,14.772c-0.41,0.856-1.01,1.569-1.725,2.115c1.025,0.778,2.293,1.208,3.588,1.208
		c0.85,0,1.716-0.184,2.527-0.575l133.671-64.376c2.05-0.986,3.27-3.029,3.318-5.168c-0.461,0.117-0.935,0.182-1.421,0.182
		c-0.429,0-0.864-0.051-1.301-0.152l-15.985-3.646c-2.705-0.621-4.553-3.04-4.562-5.706c0-0.438,0.047-0.882,0.146-1.325
		L373.483,301.005z"/>
	<path fill="#7E8083" d="M251.999,359.508l-6.095,2.936c-2.087,1.007-3.315,3.111-3.318,5.296c-0.003,0.854,0.184,1.727,0.574,2.54
		l7.119,14.772c0.416,0.856,1.01,1.565,1.717,2.106c0.715-0.543,1.309-1.252,1.725-2.112l7.115-14.771
		c0.391-0.816,0.581-1.687,0.578-2.539c-0.004-2.186-1.229-4.287-3.318-5.293L251.999,359.508z"/>
	<path fill="#BFA9A6" d="M430.444,163.404c-0.366,0.812-0.93,1.55-1.673,2.144l-12.814,10.223c-1.074,0.858-2.369,1.275-3.65,1.275
		c-1.729,0-3.441-0.757-4.602-2.203l-4.216-5.293l-30.006,131.456l6.094-2.936c0.815-0.394,1.681-0.58,2.531-0.58
		c2.188,0,4.294,1.229,5.302,3.322l7.111,14.776c0.396,0.817,0.579,1.687,0.579,2.537c0,0.041,0,0.087,0,0.124
		c2.079-0.523,3.804-2.164,4.31-4.385l33.012-144.646c0.102-0.439,0.147-0.888,0.146-1.32
		C432.561,166.147,431.761,164.503,430.444,163.404"/>
	<path fill="#7E8083" d="M382.11,297.489c-0.854,0-1.718,0.19-2.533,0.585l-6.094,2.934l-1.508,6.594
		c-0.099,0.446-0.146,0.887-0.146,1.325c0.011,2.666,1.857,5.085,4.562,5.706l15.985,3.648c0.437,0.094,0.872,0.146,1.301,0.146
		c0.486,0,0.96-0.062,1.421-0.178c0-0.041,0-0.083,0-0.118c0-0.855-0.183-1.727-0.58-2.54l-7.11-14.782
		C386.402,298.719,384.296,297.489,382.11,297.489"/>
	<path fill="#BFA2AC" d="M332.608,39.101c-0.398,0-0.796,0.038-1.188,0.121c0.404,0.798,0.634,1.696,0.634,2.646v16.396
		c0,3.228-2.644,5.87-5.862,5.87h-6.773l84.068,105.416l1.506-6.59c0.62-2.713,3.055-4.566,5.728-4.566
		c0.435,0,0.867,0.05,1.304,0.146l15.98,3.66c0.929,0.208,1.756,0.631,2.44,1.207c0.349-0.765,0.527-1.595,0.53-2.425
		c0.01-1.295-0.406-2.599-1.274-3.682L337.202,41.302C336.051,39.855,334.336,39.101,332.608,39.101"/>
	<path fill="#7E8083" d="M331.421,39.221c-0.878,0.179-1.722,0.561-2.464,1.156l-12.826,10.222c-1.436,1.149-2.19,2.846-2.202,4.563
		c-0.007,1.298,0.407,2.599,1.273,3.682l4.213,5.289h6.773c3.227,0,5.862-2.643,5.862-5.87V41.867
		C332.052,40.917,331.825,40.02,331.421,39.221"/>
	<path fill="#7E8083" d="M410.725,158.396c-2.677,0-5.111,1.854-5.731,4.563l-1.503,6.59l4.219,5.29
		c1.156,1.452,2.868,2.207,4.596,2.207c1.284,0,2.575-0.419,3.653-1.275l12.817-10.223c0.74-0.59,1.302-1.332,1.67-2.144
		c-0.688-0.572-1.51-0.996-2.438-1.209l-15.984-3.654C411.587,158.442,411.149,158.396,410.725,158.396"/>
	<path fill="#7E8083" d="M109.053,429.281c0-0.562,0.459-1.021,1.021-1.021h5.395c0.561,0,1.271,0.387,1.574,0.86l10.986,17.071
		c0.305,0.473,0.803,0.473,1.107,0l10.986-17.071c0.303-0.476,1.014-0.86,1.574-0.86h5.395c0.561,0,1.021,0.461,1.021,1.021v37.696
		c0,0.562-0.461,1.021-1.021,1.021h-4.941c-0.562,0-1.021-0.46-1.021-1.021v-26.454c0-0.563-0.256-0.642-0.568-0.177l-11.41,17.038
		c-0.311,0.468-0.619,0.851-0.682,0.851c-0.063,0-0.368-0.385-0.68-0.851l-11.301-16.922c-0.312-0.468-0.566-0.39-0.566,0.173
		v26.343c0,0.562-0.461,1.021-1.021,1.021h-4.826c-0.562,0-1.021-0.46-1.021-1.021L109.053,429.281L109.053,429.281z"/>
	<path fill="#7E8083" d="M178.662,429.281c0-0.562,0.461-1.021,1.021-1.021h4.428c0.562,0,1.303,0.363,1.648,0.809l20.037,25.861
		c0.346,0.443,0.627,0.348,0.627-0.215v-25.434c0-0.562,0.461-1.021,1.021-1.021h4.826c0.562,0,1.021,0.461,1.021,1.021v37.697
		c0,0.562-0.46,1.021-1.021,1.021h-3.804c-0.562,0-1.304-0.363-1.649-0.807l-20.661-26.659c-0.345-0.444-0.626-0.346-0.626,0.217
		v26.229c0,0.562-0.461,1.021-1.021,1.021h-4.826c-0.561,0-1.021-0.46-1.021-1.021V429.281L178.662,429.281z"/>
	<path fill="#7E8083" d="M307.46,429.281c0-0.562,0.46-1.021,1.022-1.021h27.534c0.562,0,1.021,0.461,1.021,1.021v4.313
		c0,0.562-0.46,1.021-1.021,1.021h-20.552c-0.562,0-1.021,0.461-1.021,1.022v8.797c0,0.562,0.46,1.024,1.021,1.024h17.997
		c0.562,0,1.021,0.46,1.021,1.022v4.313c0,0.562-0.46,1.021-1.021,1.021h-17.997c-0.562,0-1.021,0.461-1.021,1.021v14.137
		c0,0.562-0.46,1.021-1.021,1.021h-4.938c-0.562,0-1.022-0.46-1.022-1.021L307.46,429.281L307.46,429.281z"/>
	<path fill="#7E8083" d="M367.189,429.281c0-0.562,0.46-1.021,1.021-1.021h4.939c0.562,0,1.021,0.461,1.021,1.021v31.338
		c0,0.562,0.461,1.022,1.022,1.022h18.85c0.561,0,1.022,0.46,1.022,1.022v4.312c0,0.562-0.463,1.021-1.022,1.021H368.21
		c-0.561,0-1.021-0.46-1.021-1.021V429.281z"/>
	<path fill="#7E8083" d="M258.803,428.26h-8.857h-4.543h-0.396c-0.562,0-1.022,0.461-1.022,1.021v37.696
		c0,0.562,0.46,1.021,1.022,1.021h0.396h4.705h8.695c12.489,0,21.118-8.688,21.118-19.871v-0.112
		C279.921,436.831,271.292,428.26,258.803,428.26z M272.598,448.244c0,7.777-5.449,13.397-13.795,13.397h-7.828
		c-0.006-0.372-0.008-0.739-0.008-1.022v-26.002h7.836c8.346,0,13.795,5.733,13.795,13.512V448.244z"/>
</g>
</svg>
